<?xml version="1.0" encoding="UTF-8" standalone="no"?>
<!-- Created with Inkscape (http://www.inkscape.org/) -->

<svg
   width="1.2598425in"
   height="1.2598426in"
   viewBox="0 0 31.999999 32.000001"
   version="1.1"
   id="svg7680"
   inkscape:version="1.1 (c68e22c387, 2021-05-23)"
   sodipodi:docname="icon.svg"
   xmlns:inkscape="http://www.inkscape.org/namespaces/inkscape"
   xmlns:sodipodi="http://sodipodi.sourceforge.net/DTD/sodipodi-0.dtd"
   xmlns="http://www.w3.org/2000/svg"
   xmlns:svg="http://www.w3.org/2000/svg">
  <sodipodi:namedview
     id="namedview7682"
     pagecolor="#22200f"
     bordercolor="#666666"
     borderopacity="1.0"
     inkscape:pageshadow="2"
     inkscape:pageopacity="0"
     inkscape:pagecheckerboard="0"
     inkscape:document-units="mm"
     showgrid="false"
     units="in"
     fit-margin-top="0"
     fit-margin-left="0"
     fit-margin-right="0"
     fit-margin-bottom="0"
     inkscape:zoom="1.4823793"
     inkscape:cx="43.511131"
     inkscape:cy="46.546791"
     inkscape:window-width="1278"
     inkscape:window-height="768"
     inkscape:window-x="1366"
     inkscape:window-y="0"
     inkscape:window-maximized="0"
     inkscape:current-layer="layer1" />
  <defs
     id="defs7677" />
  <g
     inkscape:label="Camada 1"
     inkscape:groupmode="layer"
     id="layer1">
    <path
       style="fill:#ffffff;fill-opacity:1;stroke:#000000;stroke-width:0.076;stroke-opacity:1;stroke-miterlimit:4;stroke-dasharray:none"
       d="M 2.2057151,31.790682 C 1.6599764,31.57991 0.84842651,30.82311 0.55945077,30.255475 0.45166403,30.043752 0.29136803,29.617847 0.2032378,29.30902 0.05013705,28.772527 0.04299905,28.186007 0.04299905,16.141199 c 0,-11.3097399 0.0142475,-12.6644331 0.1386285,-13.1713731 C 0.47624403,1.7689724 1.205819,0.81638426 2.1906164,0.34674426 L 2.7489939,0.08045852 15.763552,0.05390352 C 29.41184,0.02605277 29.317472,0.02376327 30.060385,0.40145225 30.55669,0.65376976 31.27207,1.3694264 31.488412,1.8300291 c 0.500045,1.0646298 0.46818,0.1026365 0.46818,14.1332219 0,12.247831 -0.0077,12.894766 -0.157925,13.386316 -0.323352,1.0576 -0.994775,1.913213 -1.867142,2.379368 L 29.55126,31.93214 16.107175,31.94974 C 2.7343289,31.96724 2.6606663,31.96639 2.2057149,31.790685 Z M 29.584772,30.457275 C 30.117287,30.191347 30.56133,29.641892 30.753467,29.01112 30.944127,28.385192 30.94758,3.6579293 30.757317,3.0288434 30.57881,2.4393349 30.165335,1.8851546 29.69908,1.6104967 L 29.29376,1.3717417 H 16.064219 2.8349008 L 2.4386341,1.6051867 C 1.9059821,1.9189806 1.557869,2.3349271 1.3403757,2.9174569 1.1683553,3.3781933 1.159759,3.5583284 1.159759,6.7030696 c 0,2.9314481 0.015257,3.3077204 0.1358847,3.3541094 0.1768095,0.06799 1.9567541,0.06799 2.1335636,0 0.1183896,-0.04552 0.1358846,-0.3039732 0.1358846,-2.0073876 0,-2.0929993 0.064056,-2.5350273 0.450201,-3.1067781 C 4.1220399,4.7849636 4.3833314,4.5664286 4.595945,4.4573821 l 0.3865736,-0.1982662 8.5967654,0.019772 8.596769,0.019773 0.345895,0.2294022 c 0.217383,0.1441695 0.414523,0.375708 0.530605,0.623182 0.172663,0.3681025 0.184708,0.5260472 0.184708,2.4220063 0,1.6954444 -0.02277,2.0734294 -0.13866,2.3037288 -0.15987,0.3176248 -0.514223,0.7187068 -0.763338,0.8639928 -0.115132,0.06714 -1.007803,0.114393 -2.705997,0.143238 l -2.53419,0.04304 -0.04717,1.893885 c -0.02595,1.041635 -0.05495,1.90602 -0.06443,1.92086 -0.0095,0.01483 -0.142878,0.01483 -0.296432,0 l -0.279191,-0.02698 -0.04293,-1.807803 c -0.02363,-0.994282 -0.07423,-1.85622 -0.112451,-1.915405 -0.05328,-0.08249 -0.729185,-0.107605 -2.896256,-0.107605 -2.706819,0 -2.830541,0.007 -2.915692,0.166515 -0.05565,0.104198 -0.08893,1.136093 -0.08893,2.757503 0,2.819947 -0.0219,2.972719 -0.4985046,3.475527 -0.4541275,0.479095 -0.5047025,0.487307 -3.0021368,0.487307 -1.6794163,0 -2.3345395,0.02808 -2.4095977,0.103303 -0.075492,0.07565 -0.1030845,0.779197 -0.1030845,2.62831 0,2.165045 0.018385,2.532077 0.1288577,2.574562 0.084246,0.03241 0.128853,0.166502 0.128853,0.387387 0,0.220883 -0.044616,0.354985 -0.128853,0.387385 -0.09007,0.03462 -0.1288577,0.175433 -0.1288577,0.46774 0,0.407573 -0.1322705,0.59642 -0.4177423,0.59642 -0.1992522,0 -0.3553998,-0.286375 -0.3553998,-0.651795 V 23.88314 H 2.3576944 1.150258 l 0.026232,2.518001 c 0.024452,2.347566 0.038504,2.544521 0.2071362,2.909764 0.2452929,0.531252 0.6508346,0.9758 1.0880069,1.192652 l 0.3632979,0.180205 13.148022,6.2e-5 13.148027,6.3e-5 z M 3.5449159,20.488636 c 0.017713,-2.004068 -0.00145,-2.592043 -0.085902,-2.645815 -0.1263409,-0.08036 -1.9620726,-0.09693 -2.1633706,-0.0195 -0.1196939,0.04603 -0.1358847,0.357195 -0.1358847,2.611265 0,1.407457 0.026855,2.585907 0.059647,2.618785 0.032824,0.03288 0.5643409,0.04902 1.1811914,0.03585 l 1.1215389,-0.02393 z m -1.25e-4,-6.569915 -0.022575,-2.991477 H 2.3625064 1.202791 l -0.022575,2.991477 -0.022575,2.991475 h 1.2048951 1.2048902 z m 5.5559655,2.892122 c 0.5018732,-0.229154 0.5182807,-0.320267 0.5470957,-3.038689 0.014538,-1.370823 0.00386,-2.58197 -0.023437,-2.691438 l -0.049848,-0.199032 -2.5966637,0.02277 -2.5966636,0.02278 -0.022667,2.883255 c -0.012467,1.585792 -0.00386,2.931954 0.018772,2.991474 0.056567,0.147715 4.4014236,0.155873 4.723388,0.0089 z M 9.5613002,10.006129 C 9.6822546,9.884917 9.7093327,5.4068673 9.5902239,5.2186846 9.5334739,5.1290081 9.0595264,5.1112433 7.2935921,5.1325993 5.3156658,5.1565193 5.0430296,5.1768128 4.8395081,5.3152761 4.4016284,5.6131893 4.3382754,5.9618501 4.3382754,8.0738145 c 0,1.05646 0.0258,1.9466655 0.057269,1.9782285 0.031476,0.03156 1.1834822,0.05739 2.55996,0.05739 1.8319925,0 2.5303118,-0.0277 2.6057743,-0.103302 z m 6.6882658,-0.0043 c 0.07457,-0.1205523 0.05713,-4.6847951 -0.01839,-4.8072131 -0.02729,-0.044242 -1.274601,-0.078146 -2.874955,-0.078146 -2.732995,0 -2.829793,0.00568 -2.918145,0.1711095 -0.119146,0.2230867 -0.100135,4.5626295 0.02065,4.7142496 0.124275,0.156004 5.694319,0.156004 5.790819,0 z M 22.045693,9.9746 c 0.440163,-0.2280938 0.504398,-0.5288456 0.504398,-2.3616362 0,-1.8988494 -0.06244,-2.1652467 -0.555893,-2.3718569 -0.248108,-0.103883 -0.728842,-0.123193 -2.601707,-0.1045032 l -2.297351,0.022922 -0.02291,2.3661334 c -0.01262,1.3013724 -0.0043,2.4151049 0.01877,2.4749619 0.03215,0.08401 0.572269,0.108828 2.368065,0.108828 1.943729,0 2.369194,-0.02217 2.586605,-0.1348443 z"
       id="path1165" />
    <path
       style="fill:#ffffff;fill-opacity:1;stroke:#000000;stroke-width:0.076;stroke-miterlimit:4;stroke-dasharray:none"
       d="M 5.8790983,8.9495083 C 5.7584161,8.8285714 5.7632491,8.4733183 5.8869783,8.3704164 5.9412496,8.3252808 6.3072714,8.2784527 6.7003602,8.2663539 L 7.4150683,8.2443589 V 7.7894221 7.3344852 L 6.6962652,7.2965746 C 6.3009239,7.2757271 5.9349018,7.2310596 5.8828828,7.1973208 5.7624391,7.1192046 5.7599713,6.7487127 5.8791097,6.6293339 c 0.0598,-0.059926 0.3798167,-0.090987 0.9374105,-0.090987 1.1998831,0 1.203865,0.00399 1.203865,1.212835 0,0.917375 -0.00132,0.9242025 -0.2122931,1.106195 C 7.6121096,9.0264294 7.5333346,9.0405 6.7828514,9.0405 6.2514452,9.0405 5.9384615,9.008988 5.8791097,8.949513 Z"
       id="path1396" />
    <path
       style="fill:#ffa414;fill-opacity:0.996078;stroke:none;stroke-width:0.0757431"
       d="m 3.5945924,27.143436 c 5e-4,-0.300835 0.086072,-0.43308 1.2879787,-1.99035 1.191039,-1.543188 2.1660603,-2.810183 2.5319135,-3.290105 0.3216518,-0.421938 4.4234084,-5.765597 4.8660764,-6.339392 0.459382,-0.595463 0.467968,-0.61532 0.46837,-1.082913 8e-4,-0.889027 0.399144,-1.381332 1.117785,-1.381332 0.65109,0 1.06322,0.47576 1.146187,1.32315 l 0.04418,0.45118 1.134736,0.81885 c 0.624104,0.450362 1.186841,0.818847 1.250527,0.818847 0.06368,0 0.19276,-0.05403 0.28683,-0.120052 0.193274,-0.13566 0.70866,-0.157405 1.008079,-0.04254 0.2453,0.09411 0.22347,0.116083 1.345196,-1.353865 1.202839,-1.57623 1.244539,-1.630327 2.519187,-3.268302 0.636208,-0.817555 1.361035,-1.7508807 1.610725,-2.074052 0.249688,-0.3231731 0.749965,-0.9664525 1.111722,-1.42951 l 0.657741,-0.8419224 -0.04378,-0.4698238 c -0.03611,-0.3875637 -0.01483,-0.5297362 0.121525,-0.8120187 0.207324,-0.4291795 0.461065,-0.5986165 0.906529,-0.6053365 0.668585,-0.010087 1.083337,0.4718772 1.090807,1.2675746 0.0078,0.8299487 -0.407425,1.3030337 -1.128422,1.2856844 -0.40694,-0.00979 -0.41621,-0.00504 -0.740869,0.3791143 -0.260496,0.30825 -2.822608,3.5949951 -4.491245,5.7614971 -0.155955,0.202488 -0.436775,0.565888 -0.624041,0.807555 -0.187269,0.241673 -0.493705,0.637208 -0.68097,0.878973 -0.18727,0.24176 -0.485194,0.619995 -0.662059,0.840514 -0.298741,0.372488 -0.32157,0.43349 -0.32157,0.85939 0,0.569938 -0.125031,0.878915 -0.483171,1.194035 -0.23168,0.203845 -0.340252,0.245238 -0.643224,0.245238 -0.66747,0 -1.130056,-0.50133 -1.217353,-1.31932 l -0.03965,-0.371538 -0.832298,-0.602617 c -1.612237,-1.16732 -1.559459,-1.138997 -1.875686,-1.006592 -0.323305,0.13537 -0.682506,0.148837 -0.8973,0.03364 -0.213563,-0.114533 -0.26104,-0.06361 -1.737508,1.863707 -2.6075522,3.403775 -6.5705334,8.531314 -7.2813134,9.420984 -0.3035657,0.37997 -0.4209737,0.473892 -0.5923825,0.473892 -0.2011458,0 -0.2137478,-0.01905 -0.2132483,-0.322246 z"
       id="path4204" />
    <path
       style="fill:#ffa414;fill-opacity:0.996078;stroke:none;stroke-width:0.0757431"
       d="M 25.385481,29.420212 C 25.236675,29.175627 25.23438,29.03359 25.2341,20.050406 c -3.12e-4,-9.990139 -0.0227,-9.495959 0.436156,-9.624639 0.262779,-0.07369 1.883461,-0.07588 2.142156,-0.003 0.110255,0.0311 0.251743,0.163086 0.325145,0.303291 0.121105,0.231314 0.128423,0.868717 0.10746,9.360372 l -0.0225,9.112145 -0.159377,0.214059 -0.159373,0.21406 -1.183596,0.0209 -1.183596,0.02088 z"
       id="path4360" />
    <path
       style="fill:#ffa414;fill-opacity:0.996078;stroke:none;stroke-width:0.0757431"
       d="m 23.339551,29.508052 c -0.119228,-0.22325 -0.199458,-13.521571 -0.08335,-13.814626 0.185362,-0.467842 0.774112,-0.465642 0.970482,0.0038 0.105128,0.25123 0.11189,1.006147 0.06264,6.991957 -0.03181,3.866713 -0.085,6.766552 -0.1255,6.843014 -0.107462,0.202875 -0.71252,0.185283 -0.824272,-0.02395 z"
       id="path4399" />
    <path
       style="fill:#ffa414;fill-opacity:0.996078;stroke:none;stroke-width:0.0757431"
       d="m 19.76644,29.689735 c -0.438675,-0.07403 -0.434375,-0.0232 -0.434375,-5.13507 v -4.662642 l 0.18243,-0.212742 c 0.179476,-0.209298 0.197946,-0.21315 1.14186,-0.238028 0.650965,-0.01715 1.033185,0.0053 1.18882,0.06993 0.435703,0.180855 0.438556,0.210623 0.429746,4.48334 -0.0044,2.138592 -0.02994,4.236942 -0.05675,4.662999 -0.06627,1.053508 -0.05232,1.042005 -1.280898,1.05627 -0.529139,0.0062 -1.056014,-0.0047 -1.170835,-0.02405 z"
       id="path4438" />
    <path
       style="fill:#1597f7;fill-opacity:0.996078;stroke:none;stroke-width:0.0757431"
       d="m 7.5068008,29.632652 c -0.175395,-0.13332 -0.2819769,-0.515265 -0.2766212,-0.991297 0.00864,-0.76756 0.2958475,-1.151313 0.7901956,-1.055803 0.4077944,0.07878 0.4918125,0.26409 0.4918125,1.084743 0,0.908512 -0.084216,1.07114 -0.5528506,1.06758 -0.1745038,-0.0013 -0.378145,-0.04868 -0.4525363,-0.105223 z"
       id="path7402" />
    <path
       style="fill:#1597f7;fill-opacity:0.996078;stroke:none;stroke-width:0.0757431"
       d="m 9.7228027,29.588642 c -0.1461531,-0.14646 -0.1513263,-0.252747 -0.1513263,-3.108736 0,-2.855993 0.00517,-2.962281 0.1513263,-3.108736 0.1957344,-0.196149 0.5621123,-0.194934 0.7591443,0.0025 0.15024,0.150558 0.153335,0.22426 0.132411,3.152816 -0.02049,2.867559 -0.02785,3.003356 -0.168297,3.106224 -0.209506,0.15344 -0.5466596,0.132892 -0.7232583,-0.04408 z"
       id="path7441" />
    <path
       style="fill:#1597f7;fill-opacity:0.996078;stroke:none;stroke-width:0.0757431"
       d="m 11.944591,29.651602 c -0.08889,-0.04313 -0.199544,-0.161845 -0.245906,-0.263815 -0.124012,-0.272745 -0.118246,-9.725954 0.0061,-9.999434 0.151121,-0.332372 0.419109,-0.414912 1.347211,-0.414912 0.888275,0 1.206307,0.0877 1.3597,0.374915 0.05113,0.09574 0.07791,1.830597 0.07791,5.047269 v 4.90139 l -0.22117,0.221637 -0.221171,0.221635 -0.970529,-0.0051 c -0.533792,-0.003 -1.043255,-0.0404 -1.132141,-0.08355 z"
       id="path7480" />
    <path
       style="fill:#1597f7;fill-opacity:0.996078;stroke:none;stroke-width:0.0757431"
       d="m 15.722074,29.628067 c -0.09202,-0.06585 -0.202484,-0.246662 -0.245484,-0.40182 -0.04896,-0.176645 -0.07834,-1.69315 -0.0786,-4.056722 -4.37e-4,-4.138734 0.0076,-4.220734 0.430984,-4.382249 0.124408,-0.04746 0.624441,-0.07071 1.212391,-0.05638 0.924278,0.02253 1.013791,0.03759 1.172781,0.197507 l 0.172129,0.173115 -0.0074,4.135188 -0.0075,4.135186 -0.16468,0.165243 c -0.151277,0.151795 -0.252294,0.167092 -1.240999,0.18795 -0.885323,0.0187 -1.106005,0.0012 -1.243619,-0.09701 z"
       id="path7519" />
  </g>
</svg>
