<?xml version="1.0" encoding="UTF-8" standalone="no"?>
<!-- Created with Inkscape (http://www.inkscape.org/) -->

<svg
   width="7.5590549in"
   height="7.5590563in"
   viewBox="0 0 191.99999 192.00002"
   version="1.1"
   id="svg7680"
   inkscape:version="1.1 (c68e22c387, 2021-05-23)"
   sodipodi:docname="pwa-192x192.svg"
   xmlns:inkscape="http://www.inkscape.org/namespaces/inkscape"
   xmlns:sodipodi="http://sodipodi.sourceforge.net/DTD/sodipodi-0.dtd"
   xmlns="http://www.w3.org/2000/svg"
   xmlns:svg="http://www.w3.org/2000/svg">
  <sodipodi:namedview
     id="namedview7682"
     pagecolor="#22200f"
     bordercolor="#666666"
     borderopacity="1.0"
     inkscape:pageshadow="2"
     inkscape:pageopacity="0"
     inkscape:pagecheckerboard="0"
     inkscape:document-units="mm"
     showgrid="false"
     units="in"
     fit-margin-top="0"
     fit-margin-left="0"
     fit-margin-right="0"
     fit-margin-bottom="0"
     inkscape:zoom="0.18529742"
     inkscape:cx="458.72199"
     inkscape:cy="1359.9758"
     inkscape:window-width="1278"
     inkscape:window-height="1008"
     inkscape:window-x="1359"
     inkscape:window-y="0"
     inkscape:window-maximized="0"
     inkscape:current-layer="layer1" />
  <defs
     id="defs7677" />
  <g
     inkscape:label="Camada 1"
     inkscape:groupmode="layer"
     id="layer1">
    <path
       style="fill:#ffffff;fill-opacity:1;stroke:#000000;stroke-width:0.51597"
       d="M 13.234283,190.74408 C 9.9598507,189.47945 5.0905513,184.93865 3.3566969,181.53284 2.7099764,180.2625 1.7482004,177.70707 1.2194191,175.85411 0.30081456,172.63515 0.25798656,169.11603 0.25798656,96.847186 c 0,-67.858439 0.085485,-75.986598 0.83177104,-79.028238 C 2.8574564,10.613827 7.2349063,4.8982978 13.143691,2.0804578 l 3.350265,-1.59771439 78.087348,-0.15933 c 81.889726,-0.1671045 81.323516,-0.1808415 85.780996,2.08529239 2.97783,1.513905 7.27011,5.8078449 8.56816,8.5714612 3.00027,6.387779 2.80908,0.615819 2.80908,84.799331 0,73.486982 -0.0462,77.368592 -0.94755,80.317892 -1.94011,6.3456 -5.96865,11.47928 -11.20285,14.27621 l -2.28159,1.21923 -80.664508,0.1056 c -80.237076,0.105 -80.679052,0.0999 -83.40876,-0.95433 z m 164.274337,-8.00044 c 3.19509,-1.59557 5.85935,-4.8923 7.01217,-8.67693 1.14396,-3.75557 1.16468,-152.119142 0.0231,-155.893657 -1.07104,-3.537051 -3.55189,-6.862133 -6.34942,-8.5100805 l -2.43192,-1.43253 H 96.385306 17.009397 l -2.3776,1.40067 C 11.435885,11.513876 9.3472063,14.009555 8.0422465,17.504734 7.0101241,20.269152 6.9585463,21.349963 6.9585463,40.21841 c 0,17.588688 0.091542,19.846322 0.8153082,20.124656 1.060857,0.40794 11.7405245,0.40794 12.8013815,0 0.710338,-0.27312 0.815308,-1.823839 0.815308,-12.044325 0,-12.557996 0.384336,-15.210164 2.701206,-18.640669 0.640482,-0.948298 2.208231,-2.259508 3.483912,-2.913787 l 2.319442,-1.189597 51.580592,0.118632 51.580614,0.118638 2.07537,1.376413 c 1.3043,0.865017 2.48714,2.254248 3.18363,3.739092 1.03598,2.208615 1.10825,3.156283 1.10825,14.532038 0,10.172666 -0.13662,12.440576 -0.83196,13.822372 -0.95922,1.905749 -3.08534,4.312241 -4.58003,5.183957 -0.69079,0.40284 -6.04682,0.686358 -16.23598,0.859428 l -15.20514,0.25824 -0.28302,11.36331 c -0.1557,6.24981 -0.3297,11.43612 -0.38658,11.52516 -0.057,0.08898 -0.85727,0.08898 -1.77859,0 L 98.44711,88.290088 98.18953,77.44327 c -0.14178,-5.965692 -0.44538,-11.13732 -0.674706,-11.49243 -0.31968,-0.49494 -4.37511,-0.64563 -17.377536,-0.64563 -16.240914,0 -16.983246,0.042 -17.494152,0.99909 -0.3339,0.625188 -0.53358,6.816558 -0.53358,16.545018 0,16.919682 -0.1314,17.836312 -2.991027,20.853162 -2.724765,2.87457 -3.028215,2.92384 -18.012821,2.92384 -10.076498,0 -14.007237,0.16848 -14.457586,0.61982 -0.452952,0.4539 -0.618507,4.67518 -0.618507,15.76986 0,12.99027 0.11031,15.19246 0.773146,15.44737 0.505476,0.19446 0.773118,0.99901 0.773118,2.32432 0,1.3253 -0.267696,2.12991 -0.773118,2.32431 -0.54042,0.20772 -0.773146,1.0526 -0.773146,2.80644 0,2.44544 -0.793623,3.57852 -2.506454,3.57852 -1.195513,0 -2.132399,-1.71825 -2.132399,-3.91077 v -2.28736 H 14.146159 6.9015403 l 0.157392,15.10801 c 0.146712,14.08539 0.231024,15.26712 1.2428172,17.45858 1.4717574,3.18751 3.9050075,5.8548 6.5280415,7.15591 l 2.179787,1.08123 78.888132,3.8e-4 78.88816,3.7e-4 z M 21.269488,122.93181 c 0.106278,-12.02441 -0.0087,-15.55226 -0.515412,-15.87489 -0.758046,-0.48216 -11.7724359,-0.58158 -12.9802239,-0.117 -0.7181634,0.27618 -0.8153082,2.14317 -0.8153082,15.66759 0,8.44474 0.16113,15.51544 0.357882,15.71271 0.196944,0.19728 3.3860451,0.29412 7.0871481,0.2151 l 6.729234,-0.14358 z m -7.5e-4,-39.419492 -0.13545,-17.948862 H 14.175031 7.2167383 l -0.13545,17.948862 -0.13545,17.948852 h 7.2293707 7.229341 z m 33.335793,17.352732 c 3.011239,-1.374924 3.109684,-1.921602 3.282574,-18.232134 0.08723,-8.224938 0.02316,-15.49182 -0.140622,-16.148628 l -0.299088,-1.194192 -15.579982,0.13662 -15.579982,0.13668 -0.136002,17.29953 c -0.0748,9.514752 -0.02316,17.591724 0.112632,17.948844 0.339402,0.88629 26.408542,0.93524 28.340328,0.0534 z m 2.763262,-40.828284 c 0.725727,-0.727272 0.888195,-27.59557 0.173543,-28.724666 -0.3405,-0.538059 -3.184185,-0.644648 -13.779791,-0.516512 -11.867558,0.14352 -13.503375,0.265281 -14.724504,1.096061 -2.627278,1.787479 -3.007396,3.879444 -3.007396,16.55123 0,6.33876 0.1548,11.679993 0.343614,11.869371 0.188856,0.18936 7.100893,0.34434 15.35976,0.34434 10.991955,0 15.18187,-0.1662 15.634645,-0.619812 z m 40.129595,-0.0258 c 0.44742,-0.723314 0.34278,-28.10877 -0.11034,-28.843278 -0.16374,-0.265452 -7.647606,-0.468876 -17.24973,-0.468876 -16.39797,0 -16.978758,0.03408 -17.50887,1.026657 -0.714876,1.33852 -0.60081,27.375777 0.1239,28.285497 0.74565,0.936024 34.165914,0.936024 34.744914,0 z m 34.776762,-0.163374 c 2.64098,-1.368563 3.02639,-3.173073 3.02639,-14.169817 0,-11.393096 -0.37464,-12.99148 -3.33536,-14.231141 -1.48865,-0.623298 -4.37305,-0.739158 -15.61024,-0.62702 l -13.78411,0.137532 -0.13746,14.196801 c -0.0757,7.808234 -0.0258,14.490629 0.11262,14.849771 0.1929,0.50406 3.43362,0.652968 14.20839,0.652968 11.66238,0 14.21517,-0.13302 15.51963,-0.809066 z"
       id="path1165" />
    <path
       style="fill:#ffffff;fill-opacity:1;stroke:#000000;stroke-width:0.454459"
       d="m 35.274582,53.697042 c -0.724093,-0.725621 -0.695095,-2.85714 0.04728,-3.474551 0.325628,-0.270814 2.521759,-0.551783 4.880291,-0.624375 l 4.288249,-0.13197 V 46.736525 44.006903 L 40.177583,43.77944 c -2.372047,-0.125085 -4.56818,-0.39309 -4.880294,-0.595523 -0.722662,-0.468697 -0.737469,-2.691649 -0.02264,-3.407921 0.3588,-0.359556 2.278901,-0.545922 5.624463,-0.545922 7.199299,0 7.22319,0.02394 7.22319,7.27701 0,5.50425 -0.0079,5.545215 -1.273758,6.63717 -1.175895,1.014315 -1.648545,1.098738 -6.151444,1.098738 -3.188438,0 -5.06634,-0.189072 -5.422451,-0.545922 z"
       id="path1396" />
    <path
       style="fill:#ffa414;fill-opacity:0.996078;stroke:#000000;stroke-width:0.454459"
       d="m 21.567547,162.86061 c 0.003,-1.80501 0.516432,-2.59848 7.727872,-11.9421 7.146234,-9.25913 12.996362,-16.8611 15.191481,-19.74063 1.929911,-2.53163 26.54045,-34.593584 29.196458,-38.036354 2.756292,-3.572778 2.807808,-3.69192 2.81022,-6.497478 0.0048,-5.334162 2.394864,-8.287992 6.70671,-8.287992 3.90654,0 6.37932,2.85456 6.877122,7.9389 l 0.26508,2.70708 6.808416,4.9131 c 3.744624,2.702172 7.121044,4.913082 7.503164,4.913082 0.38208,0 1.15656,-0.32418 1.72098,-0.720312 1.15964,-0.81396 4.25196,-0.94443 6.04847,-0.25524 1.4718,0.56466 1.34082,0.696498 8.07118,-8.12319 7.21703,-9.45738 7.46723,-9.781962 15.11512,-19.609812 3.81725,-4.90533 8.16621,-10.505284 9.66435,-12.444312 1.49813,-1.939038 4.49979,-5.798715 6.67033,-8.57706 l 3.94645,-5.051534 -0.26268,-2.818943 c -0.21666,-2.325382 -0.089,-3.178417 0.72915,-4.872112 1.24394,-2.575077 2.76639,-3.591699 5.43917,-3.632019 4.01151,-0.06052 6.50002,2.831263 6.54484,7.605447 0.0468,4.979693 -2.44455,7.818203 -6.77053,7.714107 -2.44164,-0.05874 -2.49726,-0.03024 -4.44521,2.274686 -1.56298,1.8495 -16.93565,21.56997 -26.94747,34.568982 -0.93573,1.214928 -2.62065,3.395328 -3.74425,4.84533 -1.12361,1.450038 -2.96223,3.823248 -4.08582,5.273838 -1.12362,1.45056 -2.91116,3.71997 -3.97235,5.043086 -1.79245,2.23493 -1.92942,2.60094 -1.92942,5.15634 0,3.41963 -0.75019,5.27349 -2.89903,7.16421 -1.39008,1.22307 -2.04151,1.47143 -3.85934,1.47143 -4.00482,0 -6.78034,-3.00798 -7.30412,-7.91592 l -0.2379,-2.22923 -4.993788,-3.6157 c -9.673422,-7.003924 -9.356754,-6.833986 -11.254116,-6.039556 -1.93983,0.81222 -4.095036,0.893022 -5.3838,0.20184 -1.281378,-0.687198 -1.56624,-0.38166 -10.425048,11.182246 -15.645313,20.42265 -39.4232,51.18788 -43.68788,56.5259 -1.821394,2.27982 -2.525842,2.84335 -3.554295,2.84335 -1.206875,0 -1.282487,-0.1143 -1.27949,-1.93347 z"
       id="path4204" />
    <path
       style="fill:#ffa414;fill-opacity:0.996078;stroke:#000000;stroke-width:0.454459"
       d="m 152.31288,176.52126 c -0.89284,-1.46751 -0.90661,-2.31973 -0.90829,-56.21883 -0.002,-59.940836 -0.1362,-56.975756 2.61694,-57.747836 1.57667,-0.44214 11.30076,-0.45528 12.85293,-0.018 0.66153,0.1866 1.51046,0.978516 1.95087,1.819746 0.72663,1.387884 0.77054,5.212302 0.64476,56.16223 l -0.135,54.67287 -0.95626,1.28436 -0.95624,1.28436 -7.10157,0.1254 -7.10158,0.12528 z"
       id="path4360" />
    <path
       style="fill:#ffa414;fill-opacity:0.996078;stroke:#000000;stroke-width:0.454459"
       d="m 140.0373,177.0483 c -0.71537,-1.3395 -1.19675,-81.129422 -0.5001,-82.887752 1.11217,-2.807052 4.64467,-2.793852 5.82289,0.0228 0.63077,1.50738 0.67134,6.036882 0.37584,41.951742 -0.19086,23.20028 -0.51,40.59931 -0.753,41.05808 -0.64477,1.21725 -4.27512,1.1117 -4.94563,-0.1437 z"
       id="path4399" />
    <path
       style="fill:#ffa414;fill-opacity:0.996078;stroke:#000000;stroke-width:0.454459"
       d="m 118.59863,178.1384 c -2.63205,-0.44418 -2.60625,-0.1392 -2.60625,-30.81042 v -27.97585 l 1.09458,-1.27645 c 1.07686,-1.25579 1.18768,-1.2789 6.85116,-1.42817 3.90579,-0.1029 6.19911,0.0318 7.13292,0.41958 2.61422,1.08513 2.63134,1.26374 2.57848,26.90004 -0.0264,12.83155 -0.17964,25.42165 -0.3405,27.97799 -0.39762,6.32105 -0.31392,6.25203 -7.68539,6.33762 -3.17483,0.0372 -6.33608,-0.0282 -7.02501,-0.1443 z"
       id="path4438" />
    <path
       style="fill:#1597f7;fill-opacity:0.996078;stroke:#000000;stroke-width:0.454459"
       d="m 45.040797,177.7959 c -1.05237,-0.79992 -1.691861,-3.09159 -1.659727,-5.94778 0.05184,-4.60536 1.775085,-6.90788 4.741173,-6.33482 2.446767,0.47268 2.950875,1.58454 2.950875,6.50846 0,5.45107 -0.505296,6.42684 -3.317103,6.40548 -1.047023,-0.008 -2.26887,-0.29208 -2.715218,-0.63134 z"
       id="path7402" />
    <path
       style="fill:#1597f7;fill-opacity:0.996078;stroke:#000000;stroke-width:0.454459"
       d="m 58.336808,177.53184 c -0.876918,-0.87876 -0.907957,-1.51648 -0.907957,-18.65241 0,-17.13596 0.03102,-17.77369 0.907957,-18.65242 1.174407,-1.17689 3.372674,-1.1696 4.554866,0.015 0.90144,0.90335 0.92001,1.34556 0.794466,18.9169 -0.12294,17.20535 -0.1671,18.02013 -1.009782,18.63734 -1.257036,0.92064 -3.279957,0.79735 -4.33955,-0.26448 z"
       id="path7441" />
    <path
       style="fill:#1597f7;fill-opacity:0.996078;stroke:#000000;stroke-width:0.454459"
       d="m 71.667538,177.9096 c -0.53334,-0.25878 -1.197264,-0.97107 -1.475436,-1.58289 -0.744072,-1.63647 -0.709476,-58.35572 0.0366,-59.9966 0.906726,-1.99423 2.514654,-2.48947 8.083266,-2.48947 5.32965,0 7.237842,0.5262 8.1582,2.24949 0.30678,0.57444 0.46746,10.98358 0.46746,30.28361 v 29.40834 l -1.32702,1.32982 -1.327026,1.32981 -5.823174,-0.0306 c -3.202752,-0.018 -6.25953,-0.2424 -6.792846,-0.5013 z"
       id="path7480" />
    <path
       style="fill:#1597f7;fill-opacity:0.996078;stroke:#000000;stroke-width:0.454459"
       d="m 94.332436,177.76839 c -0.55212,-0.3951 -1.214904,-1.47997 -1.472904,-2.41092 -0.29376,-1.05987 -0.47004,-10.1589 -0.4716,-24.34033 -0.0026,-24.8324 0.0456,-25.3244 2.585904,-26.29349 0.746448,-0.28476 3.746646,-0.42426 7.274344,-0.33828 5.54567,0.13518 6.08275,0.22554 7.03669,1.18504 l 1.03277,1.03869 -0.0444,24.81113 -0.045,24.81111 -0.98808,0.99146 c -0.90766,0.91077 -1.51376,1.00255 -7.44599,1.1277 -5.31194,0.1122 -6.636032,0.007 -7.461716,-0.58206 z"
       id="path7519" />
  </g>
</svg>
