<?xml version="1.0" encoding="UTF-8" standalone="no"?>
<!-- Created with Inkscape (http://www.inkscape.org/) -->

<svg
   width="20.15748in"
   height="20.157484in"
   viewBox="0 0 511.99999 512.00007"
   version="1.1"
   id="svg7680"
   inkscape:version="1.1 (c68e22c387, 2021-05-23)"
   sodipodi:docname="pwa-512x512.svg"
   xmlns:inkscape="http://www.inkscape.org/namespaces/inkscape"
   xmlns:sodipodi="http://sodipodi.sourceforge.net/DTD/sodipodi-0.dtd"
   xmlns="http://www.w3.org/2000/svg"
   xmlns:svg="http://www.w3.org/2000/svg">
  <sodipodi:namedview
     id="namedview7682"
     pagecolor="#22200f"
     bordercolor="#666666"
     borderopacity="1.0"
     inkscape:pageshadow="2"
     inkscape:pageopacity="0"
     inkscape:pagecheckerboard="0"
     inkscape:document-units="mm"
     showgrid="false"
     units="in"
     fit-margin-top="0"
     fit-margin-left="0"
     fit-margin-right="0"
     fit-margin-bottom="0"
     inkscape:zoom="0.046324355"
     inkscape:cx="-2579.6366"
     inkscape:cy="755.5421"
     inkscape:window-width="1278"
     inkscape:window-height="768"
     inkscape:window-x="1366"
     inkscape:window-y="0"
     inkscape:window-maximized="0"
     inkscape:current-layer="layer1" />
  <defs
     id="defs7677" />
  <g
     inkscape:label="Camada 1"
     inkscape:groupmode="layer"
     id="layer1">
    <path
       style="fill:#ffffff;fill-opacity:1;stroke:none;stroke-width:1.37592"
       d="M 35.291419,508.65089 C 26.5596,505.27854 13.574801,493.16974 8.9511893,484.08758 7.2266013,480.70001 4.6618652,473.88553 3.2517817,468.9443 0.80216957,460.36041 0.68796157,450.97609 0.68796157,258.25917 c 0,-180.955846 0.22796,-202.630937 2.21805613,-210.741977 C 7.6198813,28.303537 19.293081,13.062125 35.049841,5.547885 L 43.983881,1.2873132 252.21681,0.86243318 C 470.58942,0.41682117 469.07953,0.38018917 480.96614,6.423213 c 7.94088,4.03708 19.38696,15.487587 22.84843,22.85723 8.00072,17.034078 7.49088,1.642184 7.49088,226.131557 0,195.96529 -0.1232,206.31625 -2.5268,214.18105 -5.17363,16.9216 -15.9164,30.61141 -29.87427,38.06989 l -6.08424,3.25128 -215.10536,0.2816 c -213.965539,0.28 -215.144142,0.2664 -222.423363,-2.54488 z M 473.35633,487.31638 c 8.52024,-4.25485 15.62493,-13.04613 18.69912,-23.13848 3.05056,-10.01485 3.10581,-405.651053 0.0616,-415.716427 -2.85611,-9.432136 -9.47171,-18.299022 -16.93179,-22.693548 l -6.48512,-3.82008 H 257.02749 45.35839 l -6.340266,3.73512 c -8.522433,5.020702 -14.092243,11.675847 -17.572135,20.996324 -2.752327,7.371782 -2.889868,10.253944 -2.889868,60.569801 0,46.90317 0.244112,52.92353 2.174156,53.66575 2.828952,1.08784 31.308066,1.08784 34.137018,0 1.894234,-0.72832 2.174154,-4.86357 2.174154,-32.1182 0,-33.487987 1.024896,-40.560435 7.203216,-49.708449 1.707953,-2.528795 5.888617,-6.025355 9.290433,-7.770099 l 6.185178,-3.172258 137.548244,0.316352 137.54831,0.316368 5.53432,3.670434 c 3.47814,2.306712 6.63238,6.011328 8.48968,9.970913 2.76262,5.88964 2.95534,8.416754 2.95534,38.752099 0,27.12711 -0.36432,33.17487 -2.21856,36.85966 -2.55792,5.082 -8.22758,11.49931 -12.21342,13.82389 -1.8421,1.07424 -16.12485,1.83029 -43.29595,2.29181 l -40.54704,0.68864 -0.75472,30.30216 c -0.4152,16.66616 -0.8792,30.49632 -1.03088,30.73376 -0.152,0.23728 -2.28605,0.23728 -4.7429,0 l -4.46707,-0.43168 -0.68688,-28.92485 c -0.37808,-15.90851 -1.18768,-29.69952 -1.79922,-30.64648 -0.85248,-1.31984 -11.66696,-1.72168 -46.34009,-1.72168 -43.30911,0 -45.28866,0.112 -46.65108,2.66424 -0.8904,1.66717 -1.42288,18.17749 -1.42288,44.12005 0,45.11915 -0.3504,47.5635 -7.97607,55.60843 -7.26604,7.66552 -8.07524,7.79691 -48.03419,7.79691 -26.870661,0 -37.352632,0.44928 -38.553562,1.65285 -1.207872,1.2104 -1.649352,12.46715 -1.649352,42.05296 0,34.64072 0.29416,40.51323 2.061722,41.19299 1.347936,0.51856 2.061648,2.66403 2.061648,6.19819 0,3.53413 -0.713856,5.67976 -2.061648,6.19816 -1.44112,0.55392 -2.061722,2.80693 -2.061722,7.48384 0,6.52117 -2.116328,9.54272 -6.683878,9.54272 -3.188035,0 -5.686397,-4.582 -5.686397,-10.42872 v -6.09963 H 37.723089 18.404105 l 0.419712,40.28803 c 0.391232,37.56104 0.616064,40.71232 3.31418,46.55621 3.924686,8.50003 10.413353,15.6128 17.408111,19.08243 l 5.812765,2.88328 210.368357,10e-4 210.36843,9.9e-4 z M 56.718633,327.81816 c 0.283408,-32.06509 -0.0232,-41.47269 -1.374432,-42.33304 -2.021456,-1.28576 -31.393163,-1.55088 -34.613931,-0.312 -1.915102,0.73648 -2.174155,5.71512 -2.174155,41.78024 0,22.51931 0.42968,41.37451 0.954352,41.90057 0.525184,0.52608 9.029454,0.78432 18.899062,0.5736 l 17.944624,-0.38288 z m -0.002,-105.11864 -0.3612,-47.86364 H 37.800081 19.244633 l -0.3612,47.86364 -0.3612,47.8636 h 19.278323 19.278243 z m 88.895447,46.27395 c 8.02997,-3.66646 8.29249,-5.12427 8.75353,-48.61903 0.23262,-21.93316 0.0618,-41.31152 -0.37499,-43.063 l -0.79757,-3.18452 -41.54662,0.36432 -41.546615,0.36448 -0.362672,46.13208 c -0.199467,25.37268 -0.06176,46.91127 0.300352,47.86359 0.905072,2.36344 70.422785,2.49397 75.574205,0.1424 z m 7.3687,-108.87543 c 1.93527,-1.93939 2.36852,-73.588185 0.46278,-76.599107 -0.908,-1.434824 -8.49116,-1.719062 -36.74611,-1.377366 -31.646819,0.38272 -36.008998,0.707416 -39.265342,2.92283 -7.006074,4.76661 -8.019722,10.345184 -8.019722,44.136613 0,16.90336 0.4128,31.14665 0.916304,31.65166 0.503616,0.50496 18.935715,0.91824 40.95936,0.91824 29.31188,0 40.48499,-0.4432 41.69239,-1.65283 z m 107.01226,-0.0688 c 1.19312,-1.92883 0.91408,-74.956718 -0.29424,-76.915406 -0.43664,-0.707872 -20.39362,-1.250336 -45.99928,-1.250336 -43.72792,0 -45.27669,0.09088 -46.69032,2.737752 -1.90634,3.569387 -1.60216,73.00207 0.3304,75.42799 1.9884,2.49607 91.1091,2.49607 92.6531,0 z m 92.73803,-0.43566 c 7.04262,-3.6495 8.07038,-8.46153 8.07038,-37.78618 0,-30.38159 -0.99904,-34.643947 -8.8943,-37.94971 -3.96973,-1.662128 -11.66147,-1.971088 -41.62731,-1.672053 l -36.75762,0.366752 -0.36656,37.858141 c -0.20187,20.82195 -0.0688,38.64167 0.30032,39.59939 0.5144,1.34416 9.15632,1.74124 37.88904,1.74124 31.09968,0 37.90712,-0.35472 41.38568,-2.15751 z"
       id="path1165" />
    <path
       style="fill:#ffffff;fill-opacity:1;stroke:#000000;stroke-width:1.21189"
       d="m 94.065551,143.19211 c -1.930914,-1.93499 -1.853586,-7.61904 0.12608,-9.26547 0.868342,-0.72217 6.724689,-1.47142 13.014109,-1.665 l 11.43533,-0.35192 v -7.27899 -7.27899 l -11.50085,-0.60657 c -6.32546,-0.33356 -12.181813,-1.04824 -13.014117,-1.58806 -1.927098,-1.24986 -1.966584,-7.17773 -0.06037,-9.08779 0.9568,-0.95881 6.077067,-1.45579 14.998567,-1.45579 19.19813,0 19.26184,0.0638 19.26184,19.40536 0,14.678 -0.0211,14.78724 -3.39669,17.69912 -3.13572,2.70484 -4.39612,2.92997 -16.40385,2.92997 -8.5025,0 -13.510238,-0.50419 -14.459867,-1.45579 z"
       id="path1396" />
    <path
       style="fill:#ffa414;fill-opacity:0.996078;stroke:none;stroke-width:1.21189"
       d="m 57.513457,434.29497 c 0.008,-4.81336 1.377152,-6.92928 20.607659,-31.8456 19.056625,-24.69102 34.656964,-44.96294 40.510614,-52.64168 5.14643,-6.75102 70.77454,-92.24956 77.85723,-101.43028 7.35011,-9.52741 7.48748,-9.84512 7.49392,-17.32661 0.0128,-14.22444 6.3863,-22.10132 17.88456,-22.10132 10.41744,0 17.01152,7.61216 18.33899,21.17041 l 0.70688,7.21888 18.15578,13.1016 c 9.98566,7.20579 18.98945,13.10155 20.00843,13.10155 1.01888,0 3.08416,-0.86448 4.58928,-1.92083 3.09238,-2.17056 11.33856,-2.51848 16.12926,-0.68064 3.9248,1.50576 3.57552,1.85732 21.52314,-21.66184 19.24542,-25.21969 19.91262,-26.08524 40.30699,-52.29284 10.17934,-13.08088 21.77656,-28.01409 25.7716,-33.18483 3.99502,-5.17077 11.99944,-15.46324 17.78755,-22.87216 l 10.52387,-13.47076 -0.70048,-7.51718 c -0.57776,-6.20102 -0.23734,-8.47578 1.9444,-12.992299 3.31717,-6.866872 7.37704,-9.577864 14.50445,-9.685384 10.69736,-0.161387 17.33339,7.550034 17.45291,20.281193 0.1248,13.27918 -6.5188,20.84854 -18.05475,20.57095 -6.51104,-0.15664 -6.65936,-0.0806 -11.85389,6.06583 -4.16795,4.932 -45.16174,57.51992 -71.85992,92.18396 -2.49529,3.2398 -6.98841,9.0542 -9.98467,12.92088 -2.9963,3.86676 -7.89928,10.19532 -10.89552,14.06356 -2.99632,3.86816 -7.7631,9.91992 -10.59294,13.44823 -4.77986,5.95982 -5.14512,6.93584 -5.14512,13.75024 0,9.11902 -2.0005,14.06264 -7.73074,19.10456 -3.70688,3.26152 -5.44403,3.92382 -10.29158,3.92382 -10.67952,0 -18.0809,-8.02128 -19.47765,-21.10912 l -0.6344,-5.94462 -13.31677,-9.64186 c -25.79579,-18.67713 -24.95134,-18.22397 -30.01097,-16.10549 -5.17289,2.16592 -10.9201,2.3814 -14.35681,0.53824 -3.417,-1.83252 -4.17664,-1.01776 -27.80012,29.81933 -41.72084,54.4604 -105.128539,136.50101 -116.50102,150.73573 -4.857051,6.07952 -6.735579,7.58227 -9.47812,7.58227 -3.218333,0 -3.419965,-0.3048 -3.411973,-5.15592 z"
       id="path4204" />
    <path
       style="fill:#ffa414;fill-opacity:0.996078;stroke:none;stroke-width:1.21189"
       d="m 406.16769,470.72337 c -2.38091,-3.91336 -2.41763,-6.18595 -2.42211,-149.91689 -0.005,-159.84223 -0.3632,-151.93535 6.97851,-153.99423 4.20445,-1.17904 30.13536,-1.21408 34.27448,-0.048 1.76408,0.4976 4.02789,2.60938 5.20232,4.85266 1.93768,3.70102 2.05477,13.89947 1.71936,149.76595 l -0.36,145.79432 -2.55003,3.42496 -2.54997,3.42496 -18.93752,0.3344 -18.93755,0.33408 z"
       id="path4360" />
    <path
       style="fill:#ffa414;fill-opacity:0.996078;stroke:none;stroke-width:1.21189"
       d="m 373.43281,472.12881 c -1.90766,-3.572 -3.19134,-216.34513 -1.3336,-221.03401 2.96578,-7.48547 12.38578,-7.45027 15.5277,0.0608 1.68206,4.01968 1.79024,16.09835 1.00224,111.87131 -0.50896,61.86742 -1.36,108.26483 -2.008,109.48822 -1.71938,3.246 -11.40032,2.96453 -13.18834,-0.3832 z"
       id="path4399" />
    <path
       style="fill:#ffa414;fill-opacity:0.996078;stroke:none;stroke-width:1.21189"
       d="m 316.26302,475.03574 c -7.0188,-1.18448 -6.95,-0.3712 -6.95,-82.16112 v -74.60227 l 2.91888,-3.40387 c 2.87162,-3.34877 3.16714,-3.4104 18.26976,-3.80845 10.41544,-0.2744 16.53096,0.0848 19.02112,1.11888 6.97125,2.89368 7.01691,3.36997 6.87595,71.73344 -0.0704,34.21747 -0.47904,67.79107 -0.908,74.60798 -1.06032,16.85613 -0.83712,16.67208 -20.49438,16.90032 -8.46621,0.0992 -16.89621,-0.0752 -18.73336,-0.3848 z"
       id="path4438" />
    <path
       style="fill:#1597f7;fill-opacity:0.996078;stroke:none;stroke-width:1.21189"
       d="m 120.10879,474.12241 c -2.80632,-2.13312 -4.51163,-8.24424 -4.42594,-15.86075 0.13824,-12.28096 4.73356,-18.42101 12.64313,-16.89285 6.52471,1.26048 7.869,4.22544 7.869,17.35589 0,14.53619 -1.34745,17.13824 -8.84561,17.08128 -2.79206,-0.0213 -6.05032,-0.77888 -7.24058,-1.68357 z"
       id="path7402" />
    <path
       style="fill:#1597f7;fill-opacity:0.996078;stroke:none;stroke-width:1.21189"
       d="m 155.56482,473.41825 c -2.33845,-2.34336 -2.42122,-4.04395 -2.42122,-49.73976 0,-45.6959 0.0827,-47.39651 2.42122,-49.73979 3.13175,-3.13837 8.9938,-3.11893 12.14631,0.04 2.40384,2.40893 2.45336,3.58816 2.11858,50.44507 -0.32784,45.88093 -0.4456,48.05368 -2.69275,49.69957 -3.3521,2.45504 -8.74656,2.12627 -11.57214,-0.70528 z"
       id="path7441" />
    <path
       style="fill:#1597f7;fill-opacity:0.996078;stroke:none;stroke-width:1.21189"
       d="m 191.11344,474.42561 c -1.42224,-0.69008 -3.19271,-2.58952 -3.9345,-4.22104 -1.98419,-4.36392 -1.89194,-155.61526 0.0976,-159.99094 2.41794,-5.31795 6.70574,-6.63859 21.55538,-6.63859 14.2124,0 19.30091,1.4032 21.7552,5.99864 0.81808,1.53184 1.24656,29.28955 1.24656,80.7563 v 78.42224 l -3.53872,3.54619 -3.53874,3.54616 -15.52846,-0.0816 c -8.54068,-0.048 -16.69208,-0.6464 -18.11426,-1.3368 z"
       id="path7480" />
    <path
       style="fill:#1597f7;fill-opacity:0.996078;stroke:none;stroke-width:1.21189"
       d="m 251.55317,474.04905 c -1.47232,-1.0536 -3.23975,-3.94659 -3.92775,-6.42912 -0.78336,-2.82632 -1.25344,-27.0904 -1.2576,-64.90755 -0.007,-66.21974 0.1216,-67.53174 6.89575,-70.11598 1.99052,-0.75936 9.99105,-1.13136 19.39825,-0.90208 14.78845,0.36048 16.22066,0.60144 18.7645,3.16011 l 2.75406,2.76984 -0.1184,66.16302 -0.12,66.16296 -2.63488,2.64389 c -2.42043,2.42872 -4.0367,2.67347 -19.85598,3.0072 -14.16517,0.2992 -17.69608,0.0187 -19.89791,-1.55216 z"
       id="path7519" />
  </g>
</svg>
